<?xml version="1.0" standalone="no"?>
<!DOCTYPE svg PUBLIC "-//W3C//DTD SVG 20010904//EN"
 "http://www.w3.org/TR/2001/REC-SVG-20010904/DTD/svg10.dtd">
<svg version="1.0" xmlns="http://www.w3.org/2000/svg"
 width="300.000000pt" height="111.000000pt" viewBox="0 0 300.000000 111.000000"
 preserveAspectRatio="xMidYMid meet">
<metadata>
Created by potrace 1.10, written by Peter Selinger 2001-2011
</metadata>
<g transform="translate(0.000000,111.000000) scale(0.100000,-0.100000)"
fill="#000000" stroke="none">
<path d="M250 833 c8 -3 27 -15 43 -25 23 -17 27 -27 29 -71 l1 -52 6 43 6 42
157 -150 c86 -82 159 -150 162 -150 3 0 6 71 6 158 0 164 3 177 45 200 16 9 6
11 -50 12 l-70 0 30 -24 c30 -24 30 -25 33 -142 l4 -118 -150 142 -150 142
-58 -1 c-33 0 -52 -3 -44 -6z"/>
<path d="M740 701 c0 -5 7 -12 16 -15 12 -5 15 -14 10 -36 -4 -22 -2 -30 9
-30 10 0 15 11 15 35 0 19 5 35 10 35 6 0 10 5 10 10 0 6 -16 10 -35 10 -19 0
-35 -4 -35 -9z"/>
<path d="M820 668 c0 -27 5 -48 10 -48 6 0 10 11 10 25 0 14 5 25 10 25 6 0
10 -11 10 -25 0 -14 5 -25 11 -25 6 0 9 14 7 33 -2 20 -8 32 -18 32 -8 0 -20
7 -27 15 -10 12 -12 6 -13 -32z"/>
<path d="M990 664 c0 -45 0 -45 33 -42 29 3 32 6 32 36 1 34 -17 52 -49 52
-12 0 -16 -11 -16 -46z"/>
<path d="M1442 698 c-13 -13 -15 -37 -6 -62 7 -18 59 -22 69 -5 11 17 -3 23
-20 9 -20 -16 -39 -1 -33 26 3 14 11 18 33 16 25 -3 27 -1 16 12 -16 19 -42
21 -59 4z"/>
<path d="M1668 688 c-2 -6 -2 -24 0 -40 3 -21 10 -28 26 -27 11 0 15 3 9 6
-15 5 -18 43 -4 43 5 0 12 -11 15 -25 5 -18 13 -25 31 -25 14 0 25 5 25 11 0
5 -4 7 -10 4 -5 -3 -16 -3 -22 2 -9 5 -4 9 15 13 26 5 27 6 13 25 -12 17 -18
18 -35 8 -16 -10 -23 -10 -35 2 -18 18 -23 19 -28 3z"/>
<path d="M900 675 c-19 -23 -8 -50 23 -53 15 -2 27 2 27 8 0 7 -8 9 -20 5 -11
-4 -20 -2 -20 4 0 6 9 11 20 11 24 0 27 25 4 34 -21 8 -20 8 -34 -9z"/>
<path d="M1076 678 c-14 -30 -3 -53 27 -56 25 -3 27 -1 27 33 0 22 -4 34 -10
30 -5 -3 -10 -15 -10 -26 0 -29 -18 -23 -22 9 -3 22 -6 24 -12 10z"/>
<path d="M1150 653 c0 -18 5 -33 10 -33 6 0 10 6 9 13 -3 23 1 37 11 37 6 0
10 -11 10 -25 0 -31 17 -33 22 -2 4 27 22 26 26 -3 2 -11 7 -20 11 -20 5 0 6
14 2 32 -6 31 -9 32 -54 33 -46 0 -47 0 -47 -32z"/>
<path d="M1282 681 c-22 -13 -11 -56 16 -59 12 -2 22 1 22 7 0 6 -7 8 -15 5
-8 -4 -15 -1 -15 5 0 6 9 11 20 11 23 0 26 10 8 28 -14 14 -19 15 -36 3z"/>
<path d="M1347 683 c-13 -12 -7 -33 8 -33 8 0 15 -5 15 -11 0 -6 -7 -9 -15 -5
-8 3 -15 1 -15 -5 0 -14 53 -7 58 9 2 6 -7 16 -20 21 -18 8 -19 10 -5 10 10 1
15 6 12 11 -7 11 -28 13 -38 3z"/>
<path d="M1532 681 c-8 -4 -12 -19 -10 -32 2 -18 10 -25 31 -27 15 -2 27 2 27
8 0 7 -8 9 -20 5 -11 -4 -20 -2 -20 4 0 6 9 11 20 11 24 0 27 25 4 34 -19 7
-16 8 -32 -3z"/>
<path d="M1608 683 c-12 -3 -18 -14 -18 -34 0 -34 17 -39 22 -6 4 27 23 24 22
-3 0 -11 3 -20 8 -20 13 0 5 63 -7 66 -5 1 -18 0 -27 -3z"/>
<path d="M1790 653 c0 -18 5 -33 10 -33 6 0 10 9 10 19 0 11 5 23 10 26 16 10
11 21 -10 21 -16 0 -20 -7 -20 -33z"/>
<path d="M321 552 c-1 -13 -14 -36 -31 -52 l-29 -27 64 0 c63 0 84 10 46 22
-11 3 -26 22 -35 43 -12 30 -15 33 -15 14z"/>
<path d="M752 548 c-11 -15 -4 -78 9 -78 8 0 14 41 10 64 -1 5 4 13 11 17 10
7 9 9 -3 9 -9 0 -21 -6 -27 -12z"/>
<path d="M950 545 c-15 -18 -5 -35 20 -35 10 0 22 -5 26 -11 4 -7 -3 -10 -19
-7 -15 1 -26 -1 -27 -7 0 -5 12 -10 28 -10 20 0 28 5 30 23 3 16 -2 22 -17 22
-11 0 -23 5 -26 10 -4 6 5 10 20 10 15 0 24 4 20 10 -9 15 -41 12 -55 -5z"/>
<path d="M1275 515 c0 -25 5 -45 10 -45 6 0 10 20 10 45 0 25 -4 45 -10 45 -6
0 -10 -20 -10 -45z"/>
<path d="M1342 548 c-30 -30 -3 -83 39 -76 34 5 36 27 2 25 -22 -2 -28 2 -28
18 0 16 6 20 28 18 29 -2 37 11 11 21 -24 9 -39 7 -52 -6z"/>
<path d="M1420 515 c0 -25 5 -45 10 -45 6 0 10 11 10 25 0 14 5 25 10 25 6 0
10 -11 10 -25 0 -14 5 -25 11 -25 6 0 9 14 7 33 -2 23 -8 32 -20 31 -10 -1
-18 4 -18 12 0 8 -4 14 -10 14 -5 0 -10 -20 -10 -45z"/>
<path d="M800 525 c-18 -22 -8 -50 19 -50 32 0 49 28 32 49 -17 20 -35 20 -51
1z"/>
<path d="M870 504 c0 -19 5 -34 10 -34 6 0 10 9 10 19 0 11 5 23 10 26 16 10
11 21 -10 22 -16 1 -20 -4 -20 -33z"/>
<path d="M1029 524 c-17 -21 0 -49 32 -49 18 0 25 6 27 24 6 38 -34 55 -59 25z"/>
<path d="M1110 525 c-26 -32 15 -75 44 -45 8 9 6 11 -9 8 -12 -2 -21 3 -23 15
-2 12 3 17 18 17 12 0 18 5 15 10 -9 14 -31 12 -45 -5z"/>
<path d="M1170 505 c0 -19 5 -35 10 -35 6 0 10 16 10 35 0 19 -4 35 -10 35 -5
0 -10 -16 -10 -35z"/>
<path d="M1210 530 c0 -7 7 -10 15 -6 8 3 15 2 15 -3 0 -5 -9 -11 -21 -14 -29
-8 -19 -31 15 -35 26 -3 27 -1 24 30 -2 25 -8 34 -25 36 -13 2 -23 -2 -23 -8z"/>
<path d="M1504 529 c-5 -9 -2 -10 9 -6 10 3 17 3 17 -2 0 -5 -9 -11 -21 -14
-29 -8 -19 -31 15 -35 26 -3 27 -1 24 30 -3 34 -29 50 -44 27z"/>
<path d="M1570 503 c0 -18 5 -33 11 -33 5 0 9 10 7 22 -2 11 3 23 10 25 7 3
12 -5 12 -21 0 -14 5 -26 10 -26 12 0 13 40 2 57 -4 7 -18 11 -30 10 -18 -1
-22 -7 -22 -34z"/>
<path d="M1647 533 c-4 -3 -7 -24 -7 -45 0 -36 2 -38 31 -38 23 0 30 4 27 17
-2 9 -14 20 -28 24 l-25 6 25 4 c34 5 40 39 7 39 -13 0 -27 -3 -30 -7z"/>
<path d="M1714 526 c-15 -39 23 -74 50 -45 8 9 7 11 -6 6 -10 -3 -20 -2 -23 3
-4 6 3 10 15 10 15 0 20 5 18 18 -4 22 -46 29 -54 8z"/>
<path d="M750 375 c8 -9 10 -29 7 -50 -4 -24 -2 -35 7 -35 8 0 11 13 9 38 l-4
37 35 -38 34 -38 4 50 c2 32 -1 51 -8 51 -6 0 -9 -13 -6 -32 l4 -33 -34 33
c-35 33 -73 47 -48 17z"/>
<path d="M1030 340 c0 -27 5 -50 10 -50 6 0 10 11 10 25 0 14 5 25 10 25 6 0
10 -11 10 -25 0 -14 5 -25 10 -25 6 0 10 14 10 30 0 23 -4 30 -20 30 -13 0
-20 7 -20 20 0 11 -4 20 -10 20 -5 0 -10 -22 -10 -50z"/>
<path d="M1558 353 c5 -52 37 -75 71 -54 18 12 33 91 16 91 -8 0 -12 -14 -11
-37 1 -33 -2 -38 -23 -41 -30 -5 -43 15 -35 51 4 19 2 27 -8 27 -10 0 -13 -10
-10 -37z"/>
<path d="M2047 363 c-11 -17 6 -63 22 -63 13 0 13 2 2 9 -8 5 -12 18 -8 30 5
21 -7 39 -16 24z"/>
<path d="M872 348 c-17 -17 -15 -45 5 -52 24 -10 51 20 37 41 -14 22 -27 26
-42 11z m32 -14 c7 -17 0 -34 -14 -34 -11 0 -21 30 -14 41 8 14 21 11 28 -7z"/>
<path d="M1170 345 c-7 -9 -8 -15 -2 -15 6 0 12 3 15 8 2 4 3 2 1 -5 -1 -6 4
-19 12 -30 13 -17 14 -15 12 16 -3 39 -19 49 -38 26z"/>
<path d="M1233 344 c-3 -8 3 -22 13 -30 17 -14 17 -15 2 -10 -10 3 -18 1 -18
-4 0 -14 27 -12 36 2 4 6 0 16 -9 23 -21 15 -22 26 -2 19 8 -4 15 -4 15 -1 0
14 -31 15 -37 1z"/>
<path d="M1282 328 c2 -17 8 -33 14 -35 6 -2 8 10 6 32 -5 44 -24 47 -20 3z"/>
<path d="M1332 348 c-16 -16 -15 -33 3 -48 13 -10 18 -11 28 -1 9 10 9 12 -3
9 -9 -2 -16 6 -18 22 -2 19 -1 22 7 10 11 -16 27 -7 16 9 -8 14 -18 14 -33 -1z"/>
<path d="M1389 355 c-7 -3 -1 -62 7 -62 6 0 9 11 6 24 -3 18 0 23 18 23 18 0
21 -5 18 -23 -3 -14 0 -24 7 -24 7 0 10 10 7 24 -3 17 0 23 13 23 12 0 16 -6
12 -19 -3 -11 1 -22 8 -24 9 -4 10 3 6 26 -6 29 -9 31 -54 32 -26 0 -47 1 -48
0z"/>
<path d="M1666 353 c-6 -6 6 -53 14 -53 5 0 6 9 3 20 -4 14 0 20 12 20 12 0
16 -6 12 -20 -3 -11 -1 -20 5 -20 5 0 8 12 6 27 -2 19 -9 27 -26 28 -12 1 -24
0 -26 -2z"/>
<path d="M1816 340 c-7 -20 -9 -22 -13 -7 -2 9 -9 17 -14 17 -13 0 -11 -13 5
-35 13 -18 14 -18 25 4 7 12 11 27 8 34 -2 6 -7 0 -11 -13z"/>
<path d="M1853 353 c-7 -2 -13 -13 -13 -23 0 -25 22 -41 40 -30 13 8 13 10 -1
10 -19 0 -33 26 -19 35 6 4 10 1 10 -4 0 -6 5 -11 11 -11 13 0 7 23 -7 26 -5
1 -15 0 -21 -3z"/>
<path d="M1909 356 c-6 -8 -5 -56 2 -56 5 0 9 9 9 20 0 11 5 20 10 20 6 0 10
4 10 8 0 7 -26 13 -31 8z"/>
<path d="M1957 353 c-12 -12 -7 -33 7 -33 8 0 17 -6 19 -12 4 -10 6 -9 6 1 1
8 -7 20 -16 28 -17 14 -17 14 0 9 11 -3 16 -2 12 4 -7 12 -19 13 -28 3z"/>
<path d="M2096 325 c13 -31 13 -35 -1 -35 -8 0 -15 -5 -15 -11 0 -21 25 -2 42
32 20 40 22 49 8 49 -5 0 -9 -3 -9 -7 1 -5 1 -15 0 -23 -1 -13 -3 -13 -10 0
-6 8 -7 18 -5 22 3 4 -2 8 -10 8 -13 0 -13 -4 0 -35z"/>
<path d="M935 320 c0 -18 5 -30 13 -30 8 0 10 8 6 24 -4 18 -1 25 13 29 13 3
11 5 -7 6 -21 1 -25 -3 -25 -29z"/>
<path d="M1104 336 c-10 -25 21 -55 38 -37 11 10 10 12 -1 9 -7 -2 -15 5 -16
15 -5 27 -14 32 -21 13z"/>
</g>
</svg>
